<svg width="903" height="1253" viewBox="0 0 903 1253" fill="none" xmlns="http://www.w3.org/2000/svg">
<path d="M176.49 272.512C179.731 270.618 183.826 272.838 184.007 276.588L184.695 290.865C184.808 293.208 186.535 295.158 188.847 295.553L202.936 297.962C206.637 298.594 208.346 302.927 206.074 305.916L197.424 317.295C196.005 319.163 196.074 321.766 197.592 323.555L206.837 334.457C209.265 337.32 207.789 341.738 204.128 342.567L190.187 345.724C187.899 346.242 186.279 348.281 186.291 350.627L186.366 364.92C186.386 368.675 182.415 371.11 179.078 369.392L166.369 362.85C164.283 361.776 161.732 362.297 160.233 364.101L151.103 375.099C148.705 377.987 144.098 377.301 142.645 373.839L137.115 360.659C136.208 358.496 133.919 357.254 131.611 357.674L117.547 360.229C113.853 360.901 110.765 357.414 111.878 353.828L116.114 340.176C116.809 337.936 115.853 335.514 113.816 334.351L101.4 327.269C98.1389 325.409 98.0145 320.753 101.172 318.721L113.192 310.987C115.164 309.717 115.989 307.247 115.176 305.047L110.217 291.641C108.914 288.12 111.812 284.473 115.536 284.946L129.716 286.748C132.043 287.043 134.263 285.681 135.054 283.473L139.872 270.016C141.138 266.481 145.702 265.55 148.25 268.307L157.955 278.801C159.548 280.523 162.123 280.907 164.149 279.724L176.49 272.512Z" fill="#F2E4BF"/>
<path d="M121.854 994.712C125.096 992.818 129.19 995.038 129.371 998.788L130.267 1017.38C130.38 1019.72 132.107 1021.67 134.419 1022.07L152.766 1025.2C156.467 1025.84 158.176 1030.17 155.904 1033.16L144.641 1047.98C143.221 1049.84 143.291 1052.45 144.808 1054.24L156.846 1068.43C159.275 1071.29 157.799 1075.71 154.137 1076.54L135.984 1080.65C133.696 1081.17 132.076 1083.21 132.088 1085.56L132.186 1104.17C132.205 1107.92 128.235 1110.36 124.897 1108.64L108.348 1100.12C106.263 1099.05 103.711 1099.57 102.213 1101.37L90.3232 1115.69C87.9251 1118.58 83.318 1117.9 81.8656 1114.43L74.6645 1097.27C73.757 1095.11 71.4678 1093.87 69.1599 1094.28L50.8466 1097.61C47.153 1098.28 44.0647 1094.8 45.1773 1091.21L50.6936 1073.43C51.3888 1071.19 50.4331 1068.77 48.3956 1067.61L32.2276 1058.39C28.9667 1056.53 28.8423 1051.87 31.9993 1049.84L47.6519 1039.77C49.6245 1038.5 50.4495 1036.03 49.6357 1033.83L43.1782 1016.37C41.8758 1012.85 44.7736 1009.2 48.4978 1009.68L66.9626 1012.02C69.2896 1012.32 71.5093 1010.96 72.3 1008.75L78.5745 991.224C79.8401 987.689 84.4041 986.758 86.9529 989.514L99.59 1003.18C101.183 1004.9 103.758 1005.29 105.784 1004.1L121.854 994.712Z" fill="#A3A2A2"/>
<path d="M797.225 7.05115C799.171 3.84102 803.829 3.84103 805.775 7.05116L811.131 15.8841C812.347 17.8899 814.795 18.7805 817.016 18.0258L826.796 14.702C830.35 13.4941 833.919 16.4882 833.346 20.1984L831.771 30.4075C831.414 32.7258 832.716 34.981 834.902 35.8304L844.531 39.571C848.03 40.9305 848.839 45.5177 846.016 47.992L838.247 54.8003C836.483 56.3463 836.031 58.9109 837.16 60.9671L842.132 70.0218C843.938 73.3125 841.609 77.3465 837.856 77.4271L827.529 77.6489C825.184 77.6992 823.189 79.3732 822.732 81.674L820.72 91.8059C819.989 95.4882 815.612 97.0813 812.685 94.7305L804.631 88.2621C802.802 86.7932 800.198 86.7933 798.369 88.2621L790.315 94.7305C787.388 97.0814 783.011 95.4882 782.28 91.806L780.268 81.674C779.811 79.3732 777.816 77.6992 775.471 77.6489L765.144 77.4271C761.391 77.3465 759.062 73.3125 760.868 70.0218L765.84 60.9671C766.969 58.9109 766.517 56.3463 764.753 54.8003L756.984 47.992C754.161 45.5177 754.97 40.9305 758.469 39.571L768.098 35.8304C770.284 34.981 771.586 32.7258 771.229 30.4075L769.654 20.1984C769.081 16.4881 772.65 13.4941 776.204 14.702L785.984 18.0258C788.205 18.7805 790.653 17.8899 791.869 15.8841L797.225 7.05115Z" fill="#F2E4BF"/>
<path d="M792.895 1105.71L786.855 1054.47C786.525 1051.67 789.89 1050 791.919 1051.96L828.862 1087.63C830.992 1089.69 834.497 1087.74 833.88 1084.85L818.466 1012.51C817.83 1009.53 821.532 1007.61 823.602 1009.85L869.71 1059.71C871.856 1062.03 875.716 1059.87 874.884 1056.82C869.663 1037.69 863.055 1011.4 863.079 1003.13" stroke="url(#paint0_linear_81_158)" stroke-width="20" stroke-linecap="round"/>
<ellipse cx="425.292" cy="487.934" rx="38.5726" ry="67.502" transform="rotate(114.833 425.292 487.934)" fill="#FBECC4"/>
<ellipse cx="449.152" cy="429.355" rx="38.5726" ry="67.502" transform="rotate(114.833 449.152 429.355)" fill="#FBECC4"/>
<ellipse cx="402.286" cy="545.914" rx="38.5726" ry="67.502" transform="rotate(114.833 402.286 545.914)" fill="#FBECC4"/>
<path d="M566 413.125L612.912 388M577.442 455L648 439.773" stroke="url(#paint1_linear_81_158)" stroke-width="27" stroke-linecap="round"/>
<path d="M226.083 1196.24L272.848 1164.98M203.04 1161.77L229.282 1116" stroke="url(#paint2_linear_81_158)" stroke-width="30" stroke-linecap="round"/>
<path d="M856.554 1205.57L886.095 1193.29M856.554 1205.57L881.308 1230.76M856.554 1205.57L839.195 1235.3M856.554 1205.57L853.618 1174.2M856.554 1205.57L822.595 1196.74" stroke="url(#paint3_linear_81_158)" stroke-width="23" stroke-linecap="round"/>
<path d="M652.453 1228.75L650.175 1236.62C648.614 1242.01 642.977 1245.12 637.584 1243.56V1243.56C632.191 1241.99 629.085 1236.36 630.646 1230.96L635.254 1215.04C636.918 1209.3 633.607 1203.29 627.86 1201.62V1201.62C622.112 1199.96 616.104 1203.27 614.441 1209.02L610.39 1223.01C608.521 1229.47 601.772 1233.19 595.315 1231.32V1231.32C588.857 1229.45 585.138 1222.7 587.007 1216.24L591.169 1201.87C592.771 1196.33 589.583 1190.55 584.049 1188.94V1188.94C578.514 1187.34 572.729 1190.53 571.127 1196.06L563.58 1222.13" stroke="url(#paint4_linear_81_158)" stroke-width="13" stroke-linecap="round"/>
<path d="M744.757 517.776L749.784 527.204C755.268 537.486 751.378 550.266 741.096 555.749V555.749C730.815 561.233 718.034 557.343 712.551 547.061L702.452 528.127C696.608 517.169 682.987 513.023 672.029 518.867V518.867C661.07 524.712 656.925 538.333 662.769 549.291L670.908 564.551C677.473 576.862 672.816 592.165 660.505 598.731V598.731C648.194 605.297 632.891 600.64 626.325 588.328L617.795 572.333C612.167 561.781 599.05 557.789 588.498 563.417V563.417C577.945 569.045 573.953 582.161 579.581 592.714L600 631" stroke="url(#paint5_linear_81_158)" stroke-width="23" stroke-linecap="round"/>
<defs>
<linearGradient id="paint0_linear_81_158" x1="838.593" y1="1020.94" x2="821.664" y2="1116.06" gradientUnits="userSpaceOnUse">
<stop stop-color="#929292"/>
<stop offset="1" stop-color="#FFEDAD"/>
</linearGradient>
<linearGradient id="paint1_linear_81_158" x1="648" y1="388" x2="565.802" y2="487.889" gradientUnits="userSpaceOnUse">
<stop stop-color="#A3A3A3"/>
<stop offset="0.604167" stop-color="#E7DDBA"/>
<stop offset="1" stop-color="#FFEDAD"/>
</linearGradient>
<linearGradient id="paint2_linear_81_158" x1="231.584" y1="1204.73" x2="273.997" y2="1164.07" gradientUnits="userSpaceOnUse">
<stop stop-color="#929292"/>
<stop offset="0.536458" stop-color="#D5C58D"/>
<stop offset="0.979167" stop-color="#F4E2A4"/>
</linearGradient>
<linearGradient id="paint3_linear_81_158" x1="871.592" y1="1209.53" x2="835.496" y2="1196.05" gradientUnits="userSpaceOnUse">
<stop offset="0.0247969" stop-color="#FEDC82"/>
<stop offset="1" stop-color="#FFEDAD"/>
</linearGradient>
<linearGradient id="paint4_linear_81_158" x1="622.743" y1="1224.83" x2="622.773" y2="1197.93" gradientUnits="userSpaceOnUse">
<stop offset="0.0247969" stop-color="#E3E3E3"/>
<stop offset="1" stop-color="#939393"/>
</linearGradient>
<linearGradient id="paint5_linear_81_158" x1="679.522" y1="435.211" x2="578.657" y2="426.928" gradientUnits="userSpaceOnUse">
<stop offset="0.0247969" stop-color="#E3E3E3"/>
<stop offset="1" stop-color="#939393"/>
<stop offset="1" stop-color="#C3C3C3"/>
</linearGradient>
</defs>
</svg>
