<svg width="733" height="598" viewBox="0 0 733 598" fill="none" xmlns="http://www.w3.org/2000/svg">
<path d="M670.529 514.519C710.71 477.428 771.966 396.989 695.547 371.966C600.024 340.688 507.724 268.842 538.996 203.063C570.268 137.283 565.909 -1.8579 479.673 1.17515C393.437 4.2082 132.076 187.518 276.119 203.063C420.161 218.607 365.197 9.13693 276.119 1.17515C187.04 -6.78663 -121.325 259.174 53.9902 292.159C229.305 325.143 360.838 326.47 351.362 371.966C341.885 417.462 129.233 494.236 248.068 563.048C366.903 631.861 443.473 580.109 509.24 547.314C561.853 521.078 638.688 514.519 670.529 514.519Z" stroke="black"/>
</svg>
