<svg width="960" height="146" viewBox="0 0 960 146" fill="none" xmlns="http://www.w3.org/2000/svg">
<path d="M0 103L44.3832 44.3283C45.3636 43.0323 47.1977 42.7525 48.5199 43.6972L130.024 101.933C130.94 102.588 132.146 102.674 133.147 102.156L247.653 42.885C248.695 42.3457 249.955 42.4632 250.879 43.1856L325.827 101.768C326.781 102.514 328.09 102.613 329.145 102.019L434.077 42.9806C435.133 42.3868 436.442 42.4858 437.396 43.2316L512.158 101.67C513.175 102.464 514.585 102.52 515.661 101.808L604.336 43.1282C605.365 42.4476 606.705 42.4658 607.715 43.1742L691.352 101.854C692.341 102.548 693.651 102.581 694.673 101.937L788.149 43.09C789.193 42.4325 790.534 42.4817 791.527 43.214L870.876 101.704C871.924 102.477 873.35 102.485 874.407 101.725L955.502 43.4241C956.656 42.5945 958.233 42.6884 959.281 43.6489L1024 103" stroke="url(#paint0_linear_97_56)" stroke-width="85" stroke-linecap="round"/>
<defs>
<linearGradient id="paint0_linear_97_56" x1="1177.34" y1="70.2508" x2="-107.221" y2="70.251" gradientUnits="userSpaceOnUse">
<stop stop-color="#929292"/>
<stop offset="1" stop-color="#FFEDAD"/>
</linearGradient>
</defs>
</svg>
